<svg xmlns="http://www.w3.org/2000/svg" width="40" height="41.524" viewBox="0 0 40 41.524">
  <g id="Group_4579" data-name="Group 4579" transform="translate(-0.087 0.355)">
    <g id="Polygon_12" data-name="Polygon 12" transform="translate(0.087 -0.355)" fill="none">
      <path d="M18.7,1.1a2,2,0,0,1,2.591,0L35.854,13.476A2,2,0,0,1,34.559,17H5.441a2,2,0,0,1-1.3-3.524Z" stroke="none"/>
      <path d="M 19.99999809265137 2.624876976013184 L 5.441036224365234 14.99999618530273 L 34.5589599609375 15.00000667572021 L 20.0010986328125 2.624966621398926 C 20.0009880065918 2.624937057495117 20.00057792663574 2.624876976013184 19.99999809265137 2.624876976013184 M 19.99999809265137 0.6248817443847656 C 20.46093368530273 0.6248817443847656 20.92186737060547 0.7835865020751953 21.29529762268066 1.100996017456055 L 35.8542594909668 13.4761266708374 C 37.27215957641602 14.68133640289307 36.41986846923828 16.99999618530273 34.55896759033203 16.99999618530273 L 5.441036224365234 16.99999618530273 C 3.580127716064453 16.99999618530273 2.727836608886719 14.68133640289307 4.145736694335938 13.4761266708374 L 18.70469856262207 1.100996017456055 C 19.07812881469727 0.7835865020751953 19.5390625 0.6248817443847656 19.99999809265137 0.6248817443847656 Z" stroke="none" fill="#72faec"/>
    </g>
    <path id="Path_7606" data-name="Path 7606" d="M6.678,20.081V36.257" transform="translate(-0.091)" fill="none" stroke="#72faec" stroke-linecap="round" stroke-width="2"/>
    <path id="Path_7607" data-name="Path 7607" d="M6.678,20.081V36.257" transform="translate(7.909)" fill="none" stroke="#72faec" stroke-linecap="round" stroke-width="2"/>
    <path id="Path_7608" data-name="Path 7608" d="M6.678,20.081V36.257" transform="translate(16.909)" fill="none" stroke="#72faec" stroke-linecap="round" stroke-width="2"/>
    <path id="Path_7610" data-name="Path 7610" d="M6.678,20.081V52.809" transform="translate(56.397 33.491) rotate(90)" fill="none" stroke="#72faec" stroke-linecap="round" stroke-width="2"/>
    <path id="Path_7609" data-name="Path 7609" d="M6.678,20.081V36.257" transform="translate(24.909)" fill="none" stroke="#72faec" stroke-linecap="round" stroke-width="2"/>
  </g>
</svg>
