<svg xmlns="http://www.w3.org/2000/svg" width="43.736" height="32.353" viewBox="0 0 43.736 32.353">
  <g id="Group_4569" data-name="Group 4569" transform="translate(1 1)">
    <g id="Icon_feather-credit-card" data-name="Icon feather-credit-card" transform="translate(0 0)">
      <path id="Path_7579" data-name="Path 7579" d="M5.294,6H39.442a3.794,3.794,0,0,1,3.794,3.794V32.559a3.794,3.794,0,0,1-3.794,3.794H5.294A3.794,3.794,0,0,1,1.5,32.559V9.794A3.794,3.794,0,0,1,5.294,6Z" transform="translate(-1.5 -6)" fill="none" stroke="#72faec" stroke-linecap="round" stroke-linejoin="round" stroke-width="2"/>
      <path id="Path_7580" data-name="Path 7580" d="M1.5,15H43.236" transform="translate(-1.5 -3.618)" fill="none" stroke="#72faec" stroke-linecap="round" stroke-linejoin="round" stroke-width="2"/>
    </g>
    <g id="Group_4568" data-name="Group 4568" transform="translate(24.303 18.258)">
      <ellipse id="Ellipse_1020" data-name="Ellipse 1020" cx="2.857" cy="3.429" rx="2.857" ry="3.429" transform="translate(5.715 0)" fill="#72faec"/>
      <ellipse id="Ellipse_1021" data-name="Ellipse 1021" cx="3.429" cy="3.429" rx="3.429" ry="3.429" transform="translate(0 0)" fill="#72faec"/>
    </g>
  </g>
</svg>
