<svg xmlns="http://www.w3.org/2000/svg" width="18.035" height="20.479" viewBox="0 0 18.035 20.479">
  <g id="Group_4243" data-name="Group 4243" transform="translate(0.75 0.75)">
    <g id="Group_4230" data-name="Group 4230" transform="translate(12.34 14.876) rotate(180)">
      <path id="Path_7360" data-name="Path 7360" d="M0,.251.252,0C.166.082.082.165,0,.251Z" transform="translate(1.687 4.224)" fill="none" stroke="#72faec" stroke-width="1.5"/>
      <path id="Path_7361" data-name="Path 7361" d="M0,0,.542.543A6.214,6.214,0,0,0,0,0Z" transform="translate(10.249 4.085)" fill="none" stroke="#72faec" stroke-width="1.5"/>
      <path id="Path_7362" data-name="Path 7362" d="M12.319,8.289a6.134,6.134,0,0,0-1.528-3.661l-.542-.543L6.163,0,1.939,4.224l-.252.251A6.138,6.138,0,0,0,.021,8.289C.012,8.427,0,8.565,0,8.707a6.17,6.17,0,0,0,12.34,0C12.34,8.565,12.328,8.427,12.319,8.289Z" fill="none" stroke="#72faec" stroke-width="1.5"/>
    </g>
    <path id="Polygon_7" data-name="Polygon 7" d="M1,0,2,1H0Z" transform="translate(5.17 17.938)" fill="none" stroke="#72faec" stroke-width="1.5"/>
    <path id="Path_7371" data-name="Path 7371" d="M4955.353,571c3.642-4.291,4.649,1.647,7.227-.986" transform="translate(-4945.83 -551.756)" fill="rgba(0,0,0,0)" stroke="#72faec" stroke-width="1.5"/>
  </g>
</svg>
