<svg xmlns="http://www.w3.org/2000/svg" width="30.14" height="26.265" viewBox="0 0 30.14 26.265">
  <g id="Group_4690" data-name="Group 4690" transform="translate(0 0)">
    <g id="Group_4689" data-name="Group 4689" transform="translate(0 0)">
      <g id="Group_4688" data-name="Group 4688">
        <g id="Group_4687" data-name="Group 4687">
          <path id="Path_7572" data-name="Path 7572" d="M132.61,379.25h-24.6a1.292,1.292,0,0,0,0,2.583h24.6a1.292,1.292,0,0,0,0-2.583Z" transform="translate(-105.238 -379.25)" fill="#72faec"/>
          <path id="Path_7573" data-name="Path 7573" d="M133.418,384.75h-26.7A1.722,1.722,0,0,0,105,386.472v18.084a1.722,1.722,0,0,0,1.722,1.722h26.7a1.722,1.722,0,0,0,1.722-1.722V386.472A1.722,1.722,0,0,0,133.418,384.75Zm-21.529,3.445a2.583,2.583,0,1,1-2.583,2.583A2.583,2.583,0,0,1,111.889,388.195Zm2.153,14.424H110.6a1.076,1.076,0,0,1,0-2.153h3.445a1.076,1.076,0,0,1,0,2.153Zm7.75,0h-3.445a1.076,1.076,0,0,1,0-2.153h3.445a1.076,1.076,0,0,1,0,2.153Zm7.75,0H126.1a1.076,1.076,0,0,1,0-2.153h3.445a1.076,1.076,0,0,1,0,2.153Zm0-10.334H118.348a1.076,1.076,0,1,1,0-2.153h11.195a1.076,1.076,0,0,1,0,2.153Z" transform="translate(-105 -380.014)" fill="#72faec"/>
        </g>
      </g>
    </g>
  </g>
</svg>
