<svg xmlns="http://www.w3.org/2000/svg" width="16.117" height="20.5" viewBox="0 0 16.117 20.5">
  <g id="Group_4709" data-name="Group 4709" transform="translate(0.75 0.75)">
    <path id="Path_7458" data-name="Path 7458" d="M124.409,279.2a7.277,7.277,0,0,1,4.425-1.491h0a7.309,7.309,0,0,1,6.53,4.023" transform="translate(-121.525 -277.706)" fill="rgba(0,0,0,0)" stroke="#72faec" stroke-linecap="round" stroke-linejoin="round" stroke-width="1.5"/>
    <path id="Path_7459" data-name="Path 7459" d="M103.845,320.882a7.3,7.3,0,0,1-3.433-6.2V310.3a7.275,7.275,0,0,1,1.1-3.855" transform="translate(-100.412 -302.993)" fill="rgba(0,0,0,0)" stroke="#72faec" stroke-linecap="round" stroke-linejoin="round" stroke-width="1.5"/>
    <path id="Path_7460" data-name="Path 7460" d="M162.056,336.53q0,.12,0,.24v4.382a7.309,7.309,0,0,1-7.309,7.309h0a7.376,7.376,0,0,1-.886-.053" transform="translate(-147.442 -329.462)" fill="rgba(0,0,0,0)" stroke="#72faec" stroke-linecap="round" stroke-linejoin="round" stroke-width="1.5"/>
    <path id="Path_7461" data-name="Path 7461" d="M153.811,309a4.672,4.672,0,0,1,.938-.095h0a4.652,4.652,0,0,1,4.652,4.652h0" transform="translate(-147.44 -305.447)" fill="rgba(0,0,0,0)" stroke="#72faec" stroke-linecap="round" stroke-linejoin="round" stroke-width="1.5"/>
    <path id="Path_7462" data-name="Path 7462" d="M126.96,343.674a4.651,4.651,0,0,1-2.548-4.15v-2.789a4.651,4.651,0,0,1,.184-1.3" transform="translate(-121.754 -328.629)" fill="rgba(0,0,0,0)" stroke="#72faec" stroke-linecap="round" stroke-linejoin="round" stroke-width="1.5"/>
    <path id="Path_7463" data-name="Path 7463" d="M144.585,400.658" transform="translate(-139.277 -385.884)" fill="rgba(0,0,0,0)" stroke="#72faec" stroke-linecap="round" stroke-linejoin="round" stroke-width="1.5"/>
    <path id="Path_7464" data-name="Path 7464" d="M159.719,370.246A4.31,4.31,0,0,1,155.9,374.3" transform="translate(-147.818 -358.886)" fill="rgba(0,0,0,0)" stroke="#72faec" stroke-linecap="round" stroke-linejoin="round" stroke-width="1.5"/>
    <line id="Line_12" data-name="Line 12" y2="2.54" transform="translate(7.035 8.131)" fill="none" stroke="#72faec" stroke-linecap="round" stroke-linejoin="round" stroke-width="1.5"/>
  </g>
</svg>
