<svg xmlns="http://www.w3.org/2000/svg" width="48.811" height="48.507" viewBox="0 0 48.811 48.507">
  <g id="Group_4794" data-name="Group 4794" transform="translate(-283.976 -266.601)">
    <path id="Path_7352" data-name="Path 7352" d="M359.295,380.089a13.425,13.425,0,1,0-21.518,10.692,2.958,2.958,0,0,1,1.184,2.357v5.454H352.78v-5.451a2.988,2.988,0,0,1,1.2-2.375A13.382,13.382,0,0,0,359.295,380.089Z" transform="translate(-37.934 -98.621)" fill="none" stroke="#fff" stroke-linecap="round" stroke-linejoin="round" stroke-miterlimit="10" stroke-width="2"/>
    <rect id="Rectangle_1407" data-name="Rectangle 1407" width="14.11" height="3.161" rx="1.58" transform="translate(300.913 302.604)" fill="none" stroke="#fff" stroke-linecap="round" stroke-linejoin="round" stroke-miterlimit="10" stroke-width="2"/>
    <g id="Group_4227" data-name="Group 4227" transform="translate(303.03 307.852)">
      <path id="Path_7353" data-name="Path 7353" d="M341.324,406.529v3.782a8.235,8.235,0,0,0,5.079,2.454" transform="translate(-341.324 -406.529)" fill="none" stroke="#fff" stroke-linecap="round" stroke-linejoin="round" stroke-miterlimit="10" stroke-width="2"/>
      <path id="Path_7354" data-name="Path 7354" d="M351.7,406.529v3.782a8.238,8.238,0,0,1-5.079,2.454" transform="translate(-341.539 -406.529)" fill="none" stroke="#fff" stroke-linecap="round" stroke-linejoin="round" stroke-miterlimit="10" stroke-width="2"/>
    </g>
    <line id="Line_1" data-name="Line 1" x2="5.528" y2="0.132" transform="translate(285 280.737)" fill="none" stroke="#72faec" stroke-linecap="round" stroke-miterlimit="10" stroke-width="2"/>
    <line id="Line_2" data-name="Line 2" x2="3.992" y2="3.21" transform="translate(290.092 268.007)" fill="none" stroke="#72faec" stroke-linecap="round" stroke-miterlimit="10" stroke-width="2"/>
    <path id="Path_7355" data-name="Path 7355" d="M351.568,380.282h-5.085l1.868-6.635-4.546,6.635h-.082l-2.37,3.556h.017l-.017.025h5.085L344.57,390.5l4.546-6.635h.082l2.37-3.556h-.017Z" transform="translate(-38.295 -98.658)" fill="#72faec"/>
    <line id="Line_7" data-name="Line 7" y1="3.21" x2="3.992" transform="translate(290.092 290.388)" fill="none" stroke="#72faec" stroke-linecap="round" stroke-miterlimit="10" stroke-width="2"/>
    <line id="Line_8" data-name="Line 8" x1="5.528" y2="0.132" transform="translate(326.236 280.737)" fill="none" stroke="#72faec" stroke-linecap="round" stroke-miterlimit="10" stroke-width="2"/>
    <line id="Line_9" data-name="Line 9" x1="3.992" y2="3.21" transform="translate(322.68 268.007)" fill="none" stroke="#72faec" stroke-linecap="round" stroke-miterlimit="10" stroke-width="2"/>
    <line id="Line_10" data-name="Line 10" x1="3.992" y1="3.21" transform="translate(322.68 290.388)" fill="none" stroke="#72faec" stroke-linecap="round" stroke-miterlimit="10" stroke-width="2"/>
  </g>
</svg>
