<svg xmlns="http://www.w3.org/2000/svg" width="27.747" height="43.579" viewBox="0 0 27.747 43.579">
  <g id="Group_4233" data-name="Group 4233" transform="translate(1 1)">
    <rect id="Rectangle_1411" data-name="Rectangle 1411" width="25.747" height="28.558" rx="4" transform="translate(0 13.021)" fill="rgba(0,0,0,0)" stroke="#fff" stroke-linecap="round" stroke-linejoin="round" stroke-width="2"/>
    <rect id="Rectangle_1412" data-name="Rectangle 1412" width="17.46" height="19.367" rx="4" transform="translate(4.143 17.617)" fill="rgba(0,0,0,0)" stroke="#fff" stroke-linecap="round" stroke-linejoin="round" stroke-width="2"/>
    <g id="Group_4232" data-name="Group 4232" transform="translate(8.48 22.353)">
      <path id="Path_7363" data-name="Path 7363" d="M533.591,627.247a9.006,9.006,0,0,1,4.769,2.255,4.586,4.586,0,0,1-.73,7.137,4.736,4.736,0,0,1-.774.353,4.407,4.407,0,0,0,.554-2.6,2.141,2.141,0,0,0-.45-1.214,4.306,4.306,0,0,0-.55-.469l-.083.066c.029.087.059.174.088.261a2,2,0,0,1-.08,1.57,1.122,1.122,0,0,1-1.9.3c-.076-.077-.146-.16-.246-.271a3.767,3.767,0,0,0,.044,2.512,3.1,3.1,0,0,1-2.6-1.651,3.016,3.016,0,0,1,.672-3.638,7.241,7.241,0,0,1,.747-.639,2.517,2.517,0,0,0,.651-3.782C533.674,627.388,533.65,627.345,533.591,627.247Z" transform="translate(-531.29 -627.247)" fill="#72faec"/>
    </g>
    <rect id="Rectangle_1413" data-name="Rectangle 1413" width="16.451" height="9.809" transform="translate(4.412 3.305)" fill="rgba(0,0,0,0)" stroke="#fff" stroke-linecap="round" stroke-linejoin="round" stroke-width="2"/>
    <rect id="Rectangle_1414" data-name="Rectangle 1414" width="20.496" height="3.305" rx="1.652" transform="translate(2.39 0)" fill="rgba(0,0,0,0)" stroke="#fff" stroke-linecap="round" stroke-linejoin="round" stroke-width="2"/>
    <g id="Path_7364" data-name="Path 7364" transform="translate(-521.924 -600.397)" fill="#72faec" stroke-linecap="round" stroke-linejoin="round">
      <path d="M 534.8815307617188 611.9691772460938 L 534.2416381835938 611.9691772460938 L 534.2416381835938 609.7579345703125 L 534.2416381835938 608.7579345703125 L 533.2416381835938 608.7579345703125 L 532.4586181640625 608.7579345703125 C 532.2824096679688 608.7579345703125 532.1390380859375 608.6142578125 532.1390380859375 608.4376220703125 C 532.1390380859375 608.2613525390625 532.2824096679688 608.1179809570313 532.4586181640625 608.1179809570313 L 536.6646118164063 608.1179809570313 C 536.8411865234375 608.1179809570313 536.98486328125 608.2613525390625 536.98486328125 608.4376220703125 C 536.98486328125 608.6142578125 536.8411865234375 608.7579345703125 536.6646118164063 608.7579345703125 L 535.8815307617188 608.7579345703125 L 534.8815307617188 608.7579345703125 L 534.8815307617188 609.7579345703125 L 534.8815307617188 611.9691772460938 Z" stroke="none"/>
      <path d="M 532.4586181640625 607.1179809570313 L 536.6646118164063 607.1179809570313 C 537.39404296875 607.1179809570313 537.98486328125 607.7088012695313 537.98486328125 608.4376220703125 C 537.98486328125 609.1670532226563 537.39404296875 609.7579345703125 536.6646118164063 609.7579345703125 L 535.8815307617188 609.7579345703125 L 535.8815307617188 612.9691772460938 L 533.2416381835938 612.9691772460938 L 533.2416381835938 609.7579345703125 L 532.4586181640625 609.7579345703125 C 531.7297973632813 609.7579345703125 531.1390380859375 609.1670532226563 531.1390380859375 608.4376220703125 C 531.1390380859375 607.7088012695313 531.7297973632813 607.1179809570313 532.4586181640625 607.1179809570313 Z" stroke="none" fill="#72faec"/>
    </g>
  </g>
</svg>
