<svg id="Group_4491" data-name="Group 4491" xmlns="http://www.w3.org/2000/svg" width="38.131" height="38.131" viewBox="0 0 38.131 38.131">
  <circle id="Ellipse_1004" data-name="Ellipse 1004" cx="19.066" cy="19.066" r="19.066" fill="#cf4332"/>
  <path id="Icon_awesome-google" data-name="Icon awesome-google" d="M17.635,9.734c0,5.113-3.5,8.753-8.673,8.753a8.962,8.962,0,1,1,0-17.924,8.619,8.619,0,0,1,6.01,2.345L12.533,5.253C9.342,2.174,3.408,4.487,3.408,9.525a5.614,5.614,0,0,0,5.554,5.659,4.846,4.846,0,0,0,5.088-3.863H8.962V8.238h8.532A7.857,7.857,0,0,1,17.635,9.734Z" transform="translate(9.914 9.352)" fill="#fff"/>
</svg>
