<svg xmlns="http://www.w3.org/2000/svg" width="32.323" height="28.282" viewBox="0 0 32.323 28.282">
  <path id="Icon_awesome-gift" data-name="Icon awesome-gift" d="M2.02,28.512a2.018,2.018,0,0,0,2.02,2.02h10.1v-10.1H2.02Zm16.161,2.02h10.1a2.018,2.018,0,0,0,2.02-2.02V20.431H18.181ZM30.3,10.331H27.645a5.5,5.5,0,0,0,.638-2.525A5.564,5.564,0,0,0,22.727,2.25c-2.626,0-4.324,1.345-6.5,4.312-2.178-2.967-3.876-4.312-6.5-4.312A5.564,5.564,0,0,0,4.167,7.805,5.427,5.427,0,0,0,4.8,10.331H2.02A2.018,2.018,0,0,0,0,12.351V17.4a1.013,1.013,0,0,0,1.01,1.01h30.3a1.013,1.013,0,0,0,1.01-1.01v-5.05A2.018,2.018,0,0,0,30.3,10.331Zm-20.587,0a2.525,2.525,0,0,1,0-5.05c1.256,0,2.184.208,5.435,5.05H9.716Zm13.011,0H17.291c3.245-4.829,4.148-5.05,5.435-5.05a2.525,2.525,0,1,1,0,5.05Z" transform="translate(0 -2.25)" fill="#72faec"/>
</svg>
