<svg id="Group_4490" data-name="Group 4490" xmlns="http://www.w3.org/2000/svg" width="38.131" height="38.131" viewBox="0 0 38.131 38.131">
  <circle id="Ellipse_1005" data-name="Ellipse 1005" cx="19.066" cy="19.066" r="19.066" fill="#c000a5"/>
  <path id="Icon_awesome-instagram" data-name="Icon awesome-instagram" d="M8.1,6.183a4.152,4.152,0,1,0,4.152,4.152A4.146,4.146,0,0,0,8.1,6.183Zm0,6.852a2.7,2.7,0,1,1,2.7-2.7,2.7,2.7,0,0,1-2.7,2.7Zm5.291-7.022a.968.968,0,1,1-.968-.968A.966.966,0,0,1,13.387,6.013ZM16.137,7A4.793,4.793,0,0,0,14.828,3.6a4.824,4.824,0,0,0-3.393-1.308c-1.337-.076-5.345-.076-6.682,0A4.817,4.817,0,0,0,1.36,3.6,4.809,4.809,0,0,0,.052,6.993c-.076,1.337-.076,5.345,0,6.682A4.793,4.793,0,0,0,1.36,17.068a4.83,4.83,0,0,0,3.393,1.308c1.337.076,5.345.076,6.682,0a4.793,4.793,0,0,0,3.393-1.308,4.824,4.824,0,0,0,1.308-3.393C16.212,12.337,16.212,8.333,16.137,7Zm-1.727,8.113a2.733,2.733,0,0,1-1.539,1.539c-1.066.423-3.6.325-4.774.325s-3.711.094-4.774-.325a2.733,2.733,0,0,1-1.539-1.539c-.423-1.066-.325-3.6-.325-4.774s-.094-3.711.325-4.774A2.733,2.733,0,0,1,3.322,4.022C4.388,3.6,6.918,3.7,8.1,3.7s3.711-.094,4.774.325a2.733,2.733,0,0,1,1.539,1.539c.423,1.066.325,3.6.325,4.774S14.832,14.047,14.409,15.109Z" transform="translate(10.681 8.439)" fill="#fff"/>
</svg>
