<svg id="Group_4488" data-name="Group 4488" xmlns="http://www.w3.org/2000/svg" width="38.131" height="38.131" viewBox="0 0 38.131 38.131">
  <circle id="Ellipse_1007" data-name="Ellipse 1007" cx="19.066" cy="19.066" r="19.066" transform="translate(0)" fill="#dada06"/>
  <path id="Icon_awesome-snapchat-ghost" data-name="Icon awesome-snapchat-ghost" d="M18.461,14.714c-.188.439-.984.762-2.434.987a6.778,6.778,0,0,0-.235.866.418.418,0,0,1-.438.321h-.011c-.34,0-.694-.156-1.4-.156a2.86,2.86,0,0,0-2.033.744,4.07,4.07,0,0,1-2.675.99,4.151,4.151,0,0,1-2.633-.99,2.857,2.857,0,0,0-2.032-.744,13.649,13.649,0,0,0-1.4.171.429.429,0,0,1-.449-.327,6.694,6.694,0,0,0-.236-.872C1.729,15.587.043,15.293,0,14.541a.384.384,0,0,1,.321-.4,5.44,5.44,0,0,0,3.694-3.105l.009-.019a.821.821,0,0,0,.089-.678c-.182-.43-.971-.584-1.3-.715-.857-.338-.976-.727-.926-.994a.93.93,0,0,1,1.193-.558,2.068,2.068,0,0,0,.851.228.738.738,0,0,0,.36-.078c-.074-1.3-.257-3.154.206-4.191A4.923,4.923,0,0,1,9.064,1.081l.365,0a4.89,4.89,0,0,1,4.579,2.95c.462,1.035.28,2.884.206,4.192a.708.708,0,0,0,.311.077,2.159,2.159,0,0,0,.8-.226.978.978,0,0,1,.74,0h0a.751.751,0,0,1,.563.646c.007.352-.308.656-.935.9-.077.03-.17.06-.269.091-.354.112-.889.282-1.034.624a.821.821,0,0,0,.089.678l.009.019a5.439,5.439,0,0,0,3.694,3.105A.394.394,0,0,1,18.461,14.714Z" transform="translate(9.914 9.599)" fill="#fff"/>
</svg>
