<svg xmlns="http://www.w3.org/2000/svg" width="26.05" height="33.073" viewBox="0 0 26.05 33.073">
  <g id="Group_4685" data-name="Group 4685" transform="translate(0 0)">
    <path id="Path_7570" data-name="Path 7570" d="M195.375,259.7a7.75,7.75,0,1,0,7.75,7.75A7.75,7.75,0,0,0,195.375,259.7Zm-.38,6.378,1.751.9a2.642,2.642,0,0,1,1.412,2.813,2.572,2.572,0,0,1-1.515,1.976V272a1.076,1.076,0,1,1-2.153,0v-.163a3.183,3.183,0,0,1-1.919-1.752,1.076,1.076,0,0,1,1.975-.858,1.039,1.039,0,0,0,1.04.618.456.456,0,0,0,.445-.4.515.515,0,0,0-.271-.557l-1.751-.9a2.654,2.654,0,0,1-1.4-2.869,2.581,2.581,0,0,1,1.879-2.062v-.16a1.076,1.076,0,0,1,2.153,0v.4a3.159,3.159,0,0,1,1.535,1.582,1.077,1.077,0,0,1-1.975.859,1.035,1.035,0,0,0-1.039-.619.46.46,0,0,0-.437.4A.5.5,0,0,0,195,266.081Z" transform="translate(-177.076 -242.13)" fill="#72faec"/>
    <path id="Path_7571" data-name="Path 7571" d="M195.63,239.871l-1.907,1.04a.864.864,0,0,1-.824,0l-2.769-1.51a.861.861,0,0,0-.825,0l-2.763,1.509a.861.861,0,0,1-.825,0l-2.762-1.508a.856.856,0,0,0-.825,0l-2.761,1.508a.86.86,0,0,1-.826,0l-1.895-1.036a.861.861,0,0,0-1.274.755v27.6a.861.861,0,0,0,1.274.756l1.907-1.039a.859.859,0,0,1,.824,0l2.769,1.509a.861.861,0,0,0,.825,0l1.622-.886a9.882,9.882,0,0,1,12.307-13.3V240.627A.861.861,0,0,0,195.63,239.871Zm-14.658,20.914h-1.292a1.076,1.076,0,1,1,0-2.153h1.292a1.076,1.076,0,1,1,0,2.153Zm2.521-4.306h-3.813a1.076,1.076,0,1,1,0-2.153h3.813a1.076,1.076,0,0,1,0,2.153Zm8.894-4.306H179.681a1.076,1.076,0,0,1,0-2.153h12.707a1.076,1.076,0,0,1,0,2.153Zm0-4.306H179.681a1.076,1.076,0,1,1,0-2.153h12.707a1.076,1.076,0,1,1,0,2.153Z" transform="translate(-175.375 -239.297)" fill="#72faec"/>
  </g>
</svg>
