<svg id="Group_4489" data-name="Group 4489" xmlns="http://www.w3.org/2000/svg" width="38.131" height="38.131" viewBox="0 0 38.131 38.131">
  <circle id="Ellipse_1006" data-name="Ellipse 1006" cx="19.066" cy="19.066" r="19.066" fill="#5ea9dd"/>
  <path id="Icon_awesome-twitter" data-name="Icon awesome-twitter" d="M16.6,7.126c.012.164.012.329.012.493A10.715,10.715,0,0,1,5.823,18.408,10.716,10.716,0,0,1,0,16.706a7.844,7.844,0,0,0,.916.047,7.594,7.594,0,0,0,4.708-1.62A3.8,3.8,0,0,1,2.078,12.5a4.782,4.782,0,0,0,.716.059,4.011,4.011,0,0,0,1-.129A3.793,3.793,0,0,1,.751,8.711V8.664a3.819,3.819,0,0,0,1.714.481A3.8,3.8,0,0,1,1.291,4.073,10.779,10.779,0,0,0,9.11,8.042a4.281,4.281,0,0,1-.094-.869,3.8,3.8,0,0,1,6.563-2.595,7.466,7.466,0,0,0,2.407-.916,3.782,3.782,0,0,1-1.667,2.09A7.6,7.6,0,0,0,18.5,5.165a8.151,8.151,0,0,1-1.9,1.961Z" transform="translate(9.914 8.059)" fill="#fff"/>
</svg>
