<svg xmlns="http://www.w3.org/2000/svg" width="41.735" height="41.493" viewBox="0 0 41.735 41.493">
  <g id="Group_4677" data-name="Group 4677" transform="translate(-173.097 -105.198)">
    <g id="Group_4676" data-name="Group 4676" transform="translate(173.097 105.198)">
      <g id="Group_4675" data-name="Group 4675">
        <path id="Path_7566" data-name="Path 7566" d="M186,132.146a.6.6,0,0,0-.571-.414h-2.934a9.394,9.394,0,0,0-9.394,9.392v4.169a1.4,1.4,0,0,0,1.4,1.4h15.417a.6.6,0,0,0,.57-.785Zm19.443-.414h-2.926a.6.6,0,0,0-.57.414l-4.486,13.76a.6.6,0,0,0,.57.785h15.407a1.4,1.4,0,0,0,1.4-1.4v-4.169A9.393,9.393,0,0,0,205.439,131.733Zm.047-15.014a11.521,11.521,0,1,0-11.521,11.52A11.521,11.521,0,0,0,205.485,116.719Z" transform="translate(-173.097 -105.198)" fill="#72faec"/>
        <path id="Path_7567" data-name="Path 7567" d="M190.8,127.6a1.8,1.8,0,0,0-1.8,1.8v9.593a1.8,1.8,0,0,0,3.6,0V129.4A1.8,1.8,0,0,0,190.8,127.6Z" transform="translate(-169.931 -100.738)" fill="#72faec"/>
      </g>
    </g>
  </g>
</svg>
