<svg id="Group_4493" data-name="Group 4493" xmlns="http://www.w3.org/2000/svg" width="38.131" height="38.131" viewBox="0 0 38.131 38.131">
  <circle id="Ellipse_1004" data-name="Ellipse 1004" cx="19.066" cy="19.066" r="19.066" transform="translate(0)" fill="#2ab200"/>
  <path id="Icon_awesome-whatsapp" data-name="Icon awesome-whatsapp" d="M18.614,5.431A10.852,10.852,0,0,0,1.539,18.523L0,24.143l5.752-1.51a10.816,10.816,0,0,0,5.185,1.319h0A10.953,10.953,0,0,0,21.893,13.1a10.891,10.891,0,0,0-3.279-7.672ZM10.941,22.124a9,9,0,0,1-4.594-1.256l-.327-.2-3.411.894.909-3.328L3.3,17.9A9.034,9.034,0,1,1,20.06,13.1a9.118,9.118,0,0,1-9.119,9.021Zm4.945-6.753c-.269-.137-1.6-.792-1.852-.88s-.43-.137-.611.137-.7.88-.86,1.065-.318.205-.586.068a7.379,7.379,0,0,1-3.689-3.225c-.279-.479.279-.445.8-1.481a.5.5,0,0,0-.024-.474c-.068-.137-.611-1.471-.836-2.013S7.78,8.114,7.614,8.1s-.337-.01-.518-.01a1,1,0,0,0-.723.337,3.046,3.046,0,0,0-.948,2.263,5.31,5.31,0,0,0,1.1,2.8,12.113,12.113,0,0,0,4.633,4.1,5.3,5.3,0,0,0,3.255.679,2.776,2.776,0,0,0,1.828-1.29,2.267,2.267,0,0,0,.156-1.29C16.336,15.571,16.156,15.5,15.887,15.371Z" transform="translate(8.119 5.869)" fill="#fff"/>
</svg>
